<mxfile host="app.diagrams.net" modified="2021-03-07T04:14:23.081Z" agent="5.0 (Windows NT 10.0; Win64; x64) AppleWebKit/537.36 (KHTML, like Gecko) Chrome/88.0.4324.104 Safari/537.36" etag="99kcAdmvBRI4AuuX1s-g" version="14.1.8" type="github">
  <diagram id="vYCgs_DqvZv50QZH4n8o" name="Page-1">
    <mxGraphModel dx="868" dy="460" grid="1" gridSize="10" guides="1" tooltips="1" connect="1" arrows="1" fold="1" page="1" pageScale="1" pageWidth="827" pageHeight="1169" math="0" shadow="0">
      <root>
        <mxCell id="0" />
        <mxCell id="1" parent="0" />
        <mxCell id="EOoK9Q-BQaM1GgZ_9zAu-1" value="" style="ellipse;whiteSpace=wrap;html=1;" vertex="1" parent="1">
          <mxGeometry x="210" y="125" width="330" height="230" as="geometry" />
        </mxCell>
        <mxCell id="EOoK9Q-BQaM1GgZ_9zAu-2" value="张飞飞" style="text;html=1;strokeColor=none;fillColor=none;align=center;verticalAlign=middle;whiteSpace=wrap;rounded=0;" vertex="1" parent="1">
          <mxGeometry x="355" y="230" width="40" height="20" as="geometry" />
        </mxCell>
        <mxCell id="EOoK9Q-BQaM1GgZ_9zAu-3" value="" style="ellipse;whiteSpace=wrap;html=1;fillColor=none;" vertex="1" parent="1">
          <mxGeometry x="342.5" y="215" width="65" height="50" as="geometry" />
        </mxCell>
        <mxCell id="EOoK9Q-BQaM1GgZ_9zAu-4" value="20岁，河北石家庄" style="text;html=1;strokeColor=none;fillColor=none;align=center;verticalAlign=middle;whiteSpace=wrap;rounded=0;" vertex="1" parent="1">
          <mxGeometry x="329" y="190" width="85" height="20" as="geometry" />
        </mxCell>
        <mxCell id="EOoK9Q-BQaM1GgZ_9zAu-6" value="爱好：coding、乒乓球、阅读、游戏" style="text;html=1;strokeColor=none;fillColor=none;align=center;verticalAlign=middle;whiteSpace=wrap;rounded=0;" vertex="1" parent="1">
          <mxGeometry x="240" y="200" width="90" height="80" as="geometry" />
        </mxCell>
        <mxCell id="EOoK9Q-BQaM1GgZ_9zAu-7" value="性格：坚持、有耐心、果断、执着、开朗" style="text;html=1;strokeColor=none;fillColor=none;align=center;verticalAlign=middle;whiteSpace=wrap;rounded=0;" vertex="1" parent="1">
          <mxGeometry x="420" y="215" width="100" height="60" as="geometry" />
        </mxCell>
      </root>
    </mxGraphModel>
  </diagram>
</mxfile>
